<svg style="margin-top: 3px" height="40" width="40" fill="#fff" xmlns="http://www.w3.org/2000/svg" viewBox="0 0 96 96"><g><path d="M61.1055,56.2109c-7.4727,3.7344-18.7383,3.7344-26.211,0a2,2,0,0,0-1.789,3.5782A33.8527,33.8527,0,0,0,48,63.0254a33.8527,33.8527,0,0,0,14.8945-3.2363,2,2,0,1,0-1.789-3.5782Z"></path><path d="M82,40H80V34A10.0117,10.0117,0,0,0,70,24H64V19.6316a6,6,0,1,0-4,0V24H36V19.6316a6,6,0,1,0-4,0V24H26A10.0117,10.0117,0,0,0,16,34v6H14a6.0066,6.0066,0,0,0-6,6v8a6.0066,6.0066,0,0,0,6,6h2v6A10.0117,10.0117,0,0,0,26,76H36V86a1.999,1.999,0,0,0,3.1992,1.6L54.666,76H70A10.0117,10.0117,0,0,0,80,66V60h2a6.0066,6.0066,0,0,0,6-6V46A6.0066,6.0066,0,0,0,82,40ZM62,12a2,2,0,1,1-2,2A2.0014,2.0014,0,0,1,62,12ZM34,12a2,2,0,1,1-2,2A2.0014,2.0014,0,0,1,34,12ZM14,56a2.0014,2.0014,0,0,1-2-2V46a2.0014,2.0014,0,0,1,2-2h2V56ZM76,66a6.0066,6.0066,0,0,1-6,6H54a1.9941,1.9941,0,0,0-1.1992.4L40,82V74a1.9988,1.9988,0,0,0-2-2H26a6.0066,6.0066,0,0,1-6-6V34a6.0066,6.0066,0,0,1,6-6H70a6.0066,6.0066,0,0,1,6,6V66Zm8-12a2.0014,2.0014,0,0,1-2,2H80V44h2a2.0014,2.0014,0,0,1,2,2Z"></path><path d="M34,44a1.9988,1.9988,0,0,0,2-2c0-1.3789,4-1.3789,4,0a2,2,0,0,0,4,0c0-2.8965-2.5234-5-6-5s-6,2.1035-6,5A1.9988,1.9988,0,0,0,34,44Z"></path><path d="M58,37c-3.4766,0-6,2.1035-6,5a2,2,0,0,0,4,0c0-1.3789,4-1.3789,4,0a2,2,0,0,0,4,0C64,39.1035,61.4766,37,58,37Z"></path></g></svg>